<mxfile host="app.diagrams.net" modified="2022-03-26T07:03:17.222Z" agent="5.0 (Windows NT 6.1; Win64; x64) AppleWebKit/537.36 (KHTML, like Gecko) Chrome/99.0.4844.74 Safari/537.36 Edg/99.0.1150.46" etag="xU92dqkCHzbfHuOFT7WW" version="17.2.2" type="github">
  <diagram id="_yite2Zf-Uj0zalYXne-" name="Page-1">
    <mxGraphModel dx="2494" dy="1047" grid="1" gridSize="10" guides="1" tooltips="1" connect="1" arrows="1" fold="1" page="1" pageScale="1" pageWidth="827" pageHeight="1169" math="0" shadow="0">
      <root>
        <mxCell id="0" />
        <mxCell id="1" parent="0" />
        <mxCell id="a1q_T6QtjMjYey4jX7b8-1" value="frwk_module_init(ROUTER)" style="rounded=1;whiteSpace=wrap;html=1;strokeColor=#7D7D7D;fontFamily=Lucida Console;fontSize=12;" vertex="1" parent="1">
          <mxGeometry x="320" y="170" width="190" height="30" as="geometry" />
        </mxCell>
        <mxCell id="a1q_T6QtjMjYey4jX7b8-2" value="frwk_timer_init(&lt;br style=&quot;font-size: 12px;&quot;&gt;rt_timeout_handler)" style="rounded=1;whiteSpace=wrap;html=1;strokeColor=#7D7D7D;fontFamily=Lucida Console;fontSize=12;" vertex="1" parent="1">
          <mxGeometry x="320" y="230" width="190" height="40" as="geometry" />
        </mxCell>
        <mxCell id="a1q_T6QtjMjYey4jX7b8-3" value="router_wan_main_task_init&lt;br style=&quot;font-size: 12px;&quot;&gt;(rt_timeout_handler)" style="rounded=1;whiteSpace=wrap;html=1;strokeColor=#7D7D7D;fontFamily=Lucida Console;fontSize=12;" vertex="1" parent="1">
          <mxGeometry x="319" y="300" width="190" height="40" as="geometry" />
        </mxCell>
        <mxCell id="a1q_T6QtjMjYey4jX7b8-4" value="dialup_init()" style="rounded=1;whiteSpace=wrap;html=1;strokeColor=#7D7D7D;fontFamily=Lucida Console;fontSize=12;" vertex="1" parent="1">
          <mxGeometry x="320" y="370" width="190" height="30" as="geometry" />
        </mxCell>
        <mxCell id="a1q_T6QtjMjYey4jX7b8-5" value="rt_lan_init()" style="rounded=1;whiteSpace=wrap;html=1;strokeColor=#7D7D7D;fontFamily=Lucida Console;fontSize=12;" vertex="1" parent="1">
          <mxGeometry x="320" y="430" width="190" height="30" as="geometry" />
        </mxCell>
        <mxCell id="a1q_T6QtjMjYey4jX7b8-6" value="frwk_ipc_init&lt;br style=&quot;font-size: 12px;&quot;&gt;(router_ipc_handler)" style="rounded=1;whiteSpace=wrap;html=1;strokeColor=#7D7D7D;fontFamily=Lucida Console;fontSize=12;" vertex="1" parent="1">
          <mxGeometry x="319" y="490" width="190" height="30" as="geometry" />
        </mxCell>
        <mxCell id="a1q_T6QtjMjYey4jX7b8-7" value="frwk_keep_running()" style="rounded=1;whiteSpace=wrap;html=1;strokeColor=#7D7D7D;fontFamily=Lucida Console;fontSize=12;" vertex="1" parent="1">
          <mxGeometry x="319" y="620" width="190" height="30" as="geometry" />
        </mxCell>
        <mxCell id="a1q_T6QtjMjYey4jX7b8-8" value="  dialup_init" style="swimlane;sketch=0;fontFamily=Lucida Console;fontSize=12;align=left;strokeColor=#9E9E9E;startSize=23;fontStyle=1" vertex="1" parent="1">
          <mxGeometry y="370" width="250" height="270" as="geometry">
            <mxRectangle x="51" y="940" width="300" height="23" as="alternateBounds" />
          </mxGeometry>
        </mxCell>
        <mxCell id="a1q_T6QtjMjYey4jX7b8-9" value="dialup_load_cfg()" style="rounded=0;whiteSpace=wrap;html=1;sketch=0;strokeColor=#808080;fontSize=12;fontFamily=Lucida Console;" vertex="1" parent="a1q_T6QtjMjYey4jX7b8-8">
          <mxGeometry x="45" y="49" width="175" height="30" as="geometry" />
        </mxCell>
        <mxCell id="a1q_T6QtjMjYey4jX7b8-10" style="edgeStyle=orthogonalEdgeStyle;rounded=0;orthogonalLoop=1;jettySize=auto;html=1;fontFamily=Lucida Console;fontSize=12;" edge="1" parent="a1q_T6QtjMjYey4jX7b8-8" source="a1q_T6QtjMjYey4jX7b8-11" target="a1q_T6QtjMjYey4jX7b8-14">
          <mxGeometry relative="1" as="geometry" />
        </mxCell>
        <mxCell id="a1q_T6QtjMjYey4jX7b8-11" value="dialup_dsi_init()" style="rounded=0;whiteSpace=wrap;html=1;sketch=0;strokeColor=#808080;fontSize=12;fontFamily=Lucida Console;" vertex="1" parent="a1q_T6QtjMjYey4jX7b8-8">
          <mxGeometry x="45" y="109" width="175" height="30" as="geometry" />
        </mxCell>
        <mxCell id="a1q_T6QtjMjYey4jX7b8-12" style="edgeStyle=orthogonalEdgeStyle;rounded=0;orthogonalLoop=1;jettySize=auto;html=1;entryX=0.5;entryY=0;entryDx=0;entryDy=0;fontFamily=Lucida Console;fontSize=12;" edge="1" parent="a1q_T6QtjMjYey4jX7b8-8" source="a1q_T6QtjMjYey4jX7b8-9" target="a1q_T6QtjMjYey4jX7b8-11">
          <mxGeometry relative="1" as="geometry" />
        </mxCell>
        <mxCell id="a1q_T6QtjMjYey4jX7b8-13" style="edgeStyle=orthogonalEdgeStyle;rounded=0;orthogonalLoop=1;jettySize=auto;html=1;fontFamily=Lucida Console;fontSize=12;" edge="1" parent="a1q_T6QtjMjYey4jX7b8-8" source="a1q_T6QtjMjYey4jX7b8-14" target="a1q_T6QtjMjYey4jX7b8-15">
          <mxGeometry relative="1" as="geometry" />
        </mxCell>
        <mxCell id="a1q_T6QtjMjYey4jX7b8-14" value="dialup_wds_init()" style="rounded=0;whiteSpace=wrap;html=1;sketch=0;strokeColor=#808080;fontSize=12;fontFamily=Lucida Console;" vertex="1" parent="a1q_T6QtjMjYey4jX7b8-8">
          <mxGeometry x="45" y="169" width="175" height="30" as="geometry" />
        </mxCell>
        <mxCell id="a1q_T6QtjMjYey4jX7b8-15" value="dialup_sub_init()" style="rounded=0;whiteSpace=wrap;html=1;sketch=0;strokeColor=#808080;fontSize=12;fontFamily=Lucida Console;" vertex="1" parent="a1q_T6QtjMjYey4jX7b8-8">
          <mxGeometry x="45" y="229" width="175" height="30" as="geometry" />
        </mxCell>
        <mxCell id="a1q_T6QtjMjYey4jX7b8-16" value="&lt;span style=&quot;text-align: left&quot;&gt;拨号初始化&lt;/span&gt;" style="text;html=1;align=center;verticalAlign=middle;resizable=0;points=[];autosize=1;fontSize=12;fontFamily=Lucida Console;" vertex="1" parent="a1q_T6QtjMjYey4jX7b8-8">
          <mxGeometry x="-10" y="20" width="80" height="20" as="geometry" />
        </mxCell>
        <mxCell id="a1q_T6QtjMjYey4jX7b8-17" value="  dialup_sub_init" style="swimlane;sketch=0;fontFamily=Lucida Console;fontSize=12;align=left;strokeColor=#9E9E9E;startSize=23;" vertex="1" parent="1">
          <mxGeometry x="-330" y="585" width="270" height="270" as="geometry">
            <mxRectangle x="51" y="940" width="300" height="23" as="alternateBounds" />
          </mxGeometry>
        </mxCell>
        <mxCell id="a1q_T6QtjMjYey4jX7b8-18" value="subpub_sub(ROAM_CHANGE)" style="rounded=0;whiteSpace=wrap;html=1;sketch=0;strokeColor=#808080;fontSize=12;fontFamily=Lucida Console;" vertex="1" parent="a1q_T6QtjMjYey4jX7b8-17">
          <mxGeometry x="45" y="40" width="175" height="30" as="geometry" />
        </mxCell>
        <mxCell id="a1q_T6QtjMjYey4jX7b8-19" style="edgeStyle=orthogonalEdgeStyle;rounded=0;orthogonalLoop=1;jettySize=auto;html=1;fontFamily=Lucida Console;fontSize=12;" edge="1" parent="a1q_T6QtjMjYey4jX7b8-17" source="a1q_T6QtjMjYey4jX7b8-20" target="a1q_T6QtjMjYey4jX7b8-23">
          <mxGeometry relative="1" as="geometry" />
        </mxCell>
        <mxCell id="a1q_T6QtjMjYey4jX7b8-20" value="subpub_sub(SRV_ST_CHANGE)" style="rounded=0;whiteSpace=wrap;html=1;sketch=0;strokeColor=#808080;fontSize=12;fontFamily=Lucida Console;" vertex="1" parent="a1q_T6QtjMjYey4jX7b8-17">
          <mxGeometry x="45" y="100" width="175" height="30" as="geometry" />
        </mxCell>
        <mxCell id="a1q_T6QtjMjYey4jX7b8-21" style="edgeStyle=orthogonalEdgeStyle;rounded=0;orthogonalLoop=1;jettySize=auto;html=1;entryX=0.5;entryY=0;entryDx=0;entryDy=0;fontFamily=Lucida Console;fontSize=12;" edge="1" parent="a1q_T6QtjMjYey4jX7b8-17" source="a1q_T6QtjMjYey4jX7b8-18" target="a1q_T6QtjMjYey4jX7b8-20">
          <mxGeometry relative="1" as="geometry" />
        </mxCell>
        <mxCell id="a1q_T6QtjMjYey4jX7b8-22" style="edgeStyle=orthogonalEdgeStyle;rounded=0;orthogonalLoop=1;jettySize=auto;html=1;fontFamily=Lucida Console;fontSize=12;" edge="1" parent="a1q_T6QtjMjYey4jX7b8-17" source="a1q_T6QtjMjYey4jX7b8-23" target="a1q_T6QtjMjYey4jX7b8-24">
          <mxGeometry relative="1" as="geometry" />
        </mxCell>
        <mxCell id="a1q_T6QtjMjYey4jX7b8-23" value="subpub_sub(DIAL_CONNECT_SUCCESS)" style="rounded=0;whiteSpace=wrap;html=1;sketch=0;strokeColor=#808080;fontSize=12;fontFamily=Lucida Console;" vertex="1" parent="a1q_T6QtjMjYey4jX7b8-17">
          <mxGeometry x="45" y="160" width="175" height="30" as="geometry" />
        </mxCell>
        <mxCell id="a1q_T6QtjMjYey4jX7b8-24" value="subpub_sub(DIAL_DISCONNECTED_SUCCESS)" style="rounded=0;whiteSpace=wrap;html=1;sketch=0;strokeColor=#808080;fontSize=12;fontFamily=Lucida Console;" vertex="1" parent="a1q_T6QtjMjYey4jX7b8-17">
          <mxGeometry x="45" y="220" width="175" height="30" as="geometry" />
        </mxCell>
        <mxCell id="a1q_T6QtjMjYey4jX7b8-25" value="&lt;span style=&quot;text-align: left&quot;&gt;拨号订阅初始化&lt;/span&gt;" style="text;html=1;align=center;verticalAlign=middle;resizable=0;points=[];autosize=1;fontSize=12;fontFamily=Lucida Console;" vertex="1" parent="a1q_T6QtjMjYey4jX7b8-17">
          <mxGeometry x="-10" y="20" width="100" height="20" as="geometry" />
        </mxCell>
        <mxCell id="a1q_T6QtjMjYey4jX7b8-26" value="  subpub_sub" style="swimlane;sketch=0;fontFamily=Lucida Console;fontSize=12;align=left;strokeColor=#9E9E9E;startSize=23;" vertex="1" parent="1">
          <mxGeometry x="-630" y="660" width="270" height="200" as="geometry">
            <mxRectangle x="51" y="940" width="300" height="23" as="alternateBounds" />
          </mxGeometry>
        </mxCell>
        <mxCell id="a1q_T6QtjMjYey4jX7b8-27" value="subpub_sub_req_msg_t req;" style="rounded=0;whiteSpace=wrap;html=1;sketch=0;strokeColor=#808080;fontSize=12;fontFamily=Lucida Console;" vertex="1" parent="a1q_T6QtjMjYey4jX7b8-26">
          <mxGeometry x="40" y="40" width="185" height="30" as="geometry" />
        </mxCell>
        <mxCell id="a1q_T6QtjMjYey4jX7b8-28" value="frwk_ipc_msg_get&lt;br&gt;(SUBPUB,MSG_SUB,&amp;amp;req...)" style="rounded=0;whiteSpace=wrap;html=1;sketch=0;strokeColor=#808080;fontSize=12;fontFamily=Lucida Console;" vertex="1" parent="a1q_T6QtjMjYey4jX7b8-26">
          <mxGeometry x="45" y="150" width="175" height="40" as="geometry" />
        </mxCell>
        <mxCell id="a1q_T6QtjMjYey4jX7b8-29" style="edgeStyle=orthogonalEdgeStyle;rounded=0;orthogonalLoop=1;jettySize=auto;html=1;entryX=0.5;entryY=0;entryDx=0;entryDy=0;fontFamily=Lucida Console;fontSize=12;" edge="1" parent="a1q_T6QtjMjYey4jX7b8-26" source="a1q_T6QtjMjYey4jX7b8-27" target="a1q_T6QtjMjYey4jX7b8-32">
          <mxGeometry relative="1" as="geometry" />
        </mxCell>
        <mxCell id="a1q_T6QtjMjYey4jX7b8-30" value="&lt;span style=&quot;text-align: left&quot;&gt;订阅&lt;/span&gt;" style="text;html=1;align=center;verticalAlign=middle;resizable=0;points=[];autosize=1;fontSize=12;fontFamily=Lucida Console;" vertex="1" parent="a1q_T6QtjMjYey4jX7b8-26">
          <mxGeometry y="20" width="40" height="20" as="geometry" />
        </mxCell>
        <mxCell id="a1q_T6QtjMjYey4jX7b8-31" style="edgeStyle=orthogonalEdgeStyle;rounded=0;orthogonalLoop=1;jettySize=auto;html=1;fontFamily=Lucida Console;fontSize=12;" edge="1" parent="a1q_T6QtjMjYey4jX7b8-26" source="a1q_T6QtjMjYey4jX7b8-32" target="a1q_T6QtjMjYey4jX7b8-28">
          <mxGeometry relative="1" as="geometry" />
        </mxCell>
        <mxCell id="a1q_T6QtjMjYey4jX7b8-32" value="req.msg_id = msg;" style="rounded=0;whiteSpace=wrap;html=1;sketch=0;strokeColor=#808080;fontSize=12;fontFamily=Lucida Console;" vertex="1" parent="a1q_T6QtjMjYey4jX7b8-26">
          <mxGeometry x="40" y="99" width="185" height="30" as="geometry" />
        </mxCell>
        <mxCell id="a1q_T6QtjMjYey4jX7b8-33" value="router 进程" style="text;html=1;align=center;verticalAlign=middle;resizable=0;points=[];autosize=1;fontSize=12;fontFamily=Lucida Console;fontStyle=1" vertex="1" parent="1">
          <mxGeometry x="369" y="130" width="90" height="20" as="geometry" />
        </mxCell>
        <mxCell id="a1q_T6QtjMjYey4jX7b8-34" value="subpub 进程" style="text;html=1;align=center;verticalAlign=middle;resizable=0;points=[];autosize=1;fontSize=12;fontFamily=Lucida Console;fontStyle=1" vertex="1" parent="1">
          <mxGeometry x="875" y="130" width="90" height="20" as="geometry" />
        </mxCell>
        <mxCell id="a1q_T6QtjMjYey4jX7b8-35" value="frwk_module_init(SUBPUB)" style="rounded=1;whiteSpace=wrap;html=1;strokeColor=#7D7D7D;fontFamily=Lucida Console;fontSize=12;" vertex="1" parent="1">
          <mxGeometry x="825" y="170" width="190" height="30" as="geometry" />
        </mxCell>
        <mxCell id="a1q_T6QtjMjYey4jX7b8-36" value="frwk_ipc_init&lt;br style=&quot;font-size: 12px&quot;&gt;(subpub_ipc_handler)" style="rounded=1;whiteSpace=wrap;html=1;strokeColor=#7D7D7D;fontFamily=Lucida Console;fontSize=12;" vertex="1" parent="1">
          <mxGeometry x="825" y="360" width="190" height="30" as="geometry" />
        </mxCell>
        <mxCell id="a1q_T6QtjMjYey4jX7b8-37" value="subpub_list_init()" style="rounded=1;whiteSpace=wrap;html=1;strokeColor=#7D7D7D;fontFamily=Lucida Console;fontSize=12;" vertex="1" parent="1">
          <mxGeometry x="825" y="230" width="190" height="30" as="geometry" />
        </mxCell>
        <mxCell id="a1q_T6QtjMjYey4jX7b8-38" value="subpub_restore()" style="rounded=1;whiteSpace=wrap;html=1;strokeColor=#7D7D7D;fontFamily=Lucida Console;fontSize=12;" vertex="1" parent="1">
          <mxGeometry x="825" y="290" width="190" height="30" as="geometry" />
        </mxCell>
        <mxCell id="a1q_T6QtjMjYey4jX7b8-39" value="frwk_keep_running()" style="rounded=1;whiteSpace=wrap;html=1;strokeColor=#7D7D7D;fontFamily=Lucida Console;fontSize=12;" vertex="1" parent="1">
          <mxGeometry x="825" y="490" width="190" height="30" as="geometry" />
        </mxCell>
        <mxCell id="a1q_T6QtjMjYey4jX7b8-40" value="frwk_set_module_status&lt;br&gt;(INIT_SUCCESS)" style="rounded=1;whiteSpace=wrap;html=1;strokeColor=#7D7D7D;fontFamily=Lucida Console;fontSize=12;" vertex="1" parent="1">
          <mxGeometry x="319" y="555" width="190" height="35" as="geometry" />
        </mxCell>
        <mxCell id="a1q_T6QtjMjYey4jX7b8-41" value="frwk_set_module_status&lt;br&gt;(INIT_SUCCESS)" style="rounded=1;whiteSpace=wrap;html=1;strokeColor=#7D7D7D;fontFamily=Lucida Console;fontSize=12;" vertex="1" parent="1">
          <mxGeometry x="825" y="420" width="190" height="40" as="geometry" />
        </mxCell>
        <mxCell id="a1q_T6QtjMjYey4jX7b8-42" value="  subpub_ipc_handler(msg_from, msg_id, req, reqlen, rsp, rspsize, timeout)" style="swimlane;sketch=0;fontFamily=Lucida Console;fontSize=12;align=left;strokeColor=#9E9E9E;startSize=23;fontStyle=1" vertex="1" parent="1">
          <mxGeometry x="1030" y="360" width="610" height="230" as="geometry">
            <mxRectangle x="51" y="940" width="300" height="23" as="alternateBounds" />
          </mxGeometry>
        </mxCell>
        <mxCell id="a1q_T6QtjMjYey4jX7b8-43" value="&lt;div style=&quot;text-align: left&quot;&gt;&lt;span&gt;处理主动上报的消息&lt;/span&gt;&lt;/div&gt;" style="text;html=1;align=center;verticalAlign=middle;resizable=0;points=[];autosize=1;fontSize=12;fontFamily=Lucida Console;" vertex="1" parent="a1q_T6QtjMjYey4jX7b8-42">
          <mxGeometry y="20" width="120" height="20" as="geometry" />
        </mxCell>
        <mxCell id="a1q_T6QtjMjYey4jX7b8-44" style="edgeStyle=orthogonalEdgeStyle;rounded=0;orthogonalLoop=1;jettySize=auto;html=1;fontFamily=Lucida Console;fontSize=12;" edge="1" parent="a1q_T6QtjMjYey4jX7b8-42" source="a1q_T6QtjMjYey4jX7b8-48" target="a1q_T6QtjMjYey4jX7b8-50">
          <mxGeometry relative="1" as="geometry" />
        </mxCell>
        <mxCell id="a1q_T6QtjMjYey4jX7b8-45" style="edgeStyle=orthogonalEdgeStyle;rounded=0;orthogonalLoop=1;jettySize=auto;html=1;fontFamily=Lucida Console;fontSize=12;" edge="1" parent="a1q_T6QtjMjYey4jX7b8-42" source="a1q_T6QtjMjYey4jX7b8-48" target="a1q_T6QtjMjYey4jX7b8-56">
          <mxGeometry relative="1" as="geometry" />
        </mxCell>
        <mxCell id="a1q_T6QtjMjYey4jX7b8-46" style="edgeStyle=orthogonalEdgeStyle;rounded=0;orthogonalLoop=1;jettySize=auto;html=1;fontFamily=Lucida Console;fontSize=12;" edge="1" parent="a1q_T6QtjMjYey4jX7b8-42" source="a1q_T6QtjMjYey4jX7b8-48" target="a1q_T6QtjMjYey4jX7b8-52">
          <mxGeometry relative="1" as="geometry" />
        </mxCell>
        <mxCell id="a1q_T6QtjMjYey4jX7b8-47" style="edgeStyle=orthogonalEdgeStyle;rounded=0;orthogonalLoop=1;jettySize=auto;html=1;fontFamily=Lucida Console;fontSize=12;" edge="1" parent="a1q_T6QtjMjYey4jX7b8-42" source="a1q_T6QtjMjYey4jX7b8-48" target="a1q_T6QtjMjYey4jX7b8-54">
          <mxGeometry relative="1" as="geometry">
            <Array as="points">
              <mxPoint x="245" y="90" />
              <mxPoint x="331" y="90" />
            </Array>
          </mxGeometry>
        </mxCell>
        <mxCell id="a1q_T6QtjMjYey4jX7b8-48" value="msg_id" style="rhombus;whiteSpace=wrap;html=1;sketch=0;rounded=1;fontFamily=Lucida Console;fontSize=14;strokeColor=#616161;" vertex="1" parent="a1q_T6QtjMjYey4jX7b8-42">
          <mxGeometry x="180" y="40" width="130" height="30" as="geometry" />
        </mxCell>
        <mxCell id="a1q_T6QtjMjYey4jX7b8-49" style="edgeStyle=orthogonalEdgeStyle;rounded=0;orthogonalLoop=1;jettySize=auto;html=1;fontFamily=Lucida Console;fontSize=12;" edge="1" parent="a1q_T6QtjMjYey4jX7b8-42" source="a1q_T6QtjMjYey4jX7b8-50" target="a1q_T6QtjMjYey4jX7b8-57">
          <mxGeometry relative="1" as="geometry" />
        </mxCell>
        <mxCell id="a1q_T6QtjMjYey4jX7b8-50" value="SUBPUB_MSG_SUB" style="rounded=1;whiteSpace=wrap;html=1;strokeColor=#7D7D7D;fontFamily=Lucida Console;" vertex="1" parent="a1q_T6QtjMjYey4jX7b8-42">
          <mxGeometry x="10" y="108" width="110" height="30" as="geometry" />
        </mxCell>
        <mxCell id="a1q_T6QtjMjYey4jX7b8-51" style="edgeStyle=orthogonalEdgeStyle;rounded=0;orthogonalLoop=1;jettySize=auto;html=1;fontFamily=Lucida Console;fontSize=12;" edge="1" parent="a1q_T6QtjMjYey4jX7b8-42" source="a1q_T6QtjMjYey4jX7b8-52" target="a1q_T6QtjMjYey4jX7b8-58">
          <mxGeometry relative="1" as="geometry" />
        </mxCell>
        <mxCell id="a1q_T6QtjMjYey4jX7b8-52" value="SUBPUB_MSG_PUB" style="rounded=1;whiteSpace=wrap;html=1;strokeColor=#7D7D7D;fontFamily=Lucida Console;" vertex="1" parent="a1q_T6QtjMjYey4jX7b8-42">
          <mxGeometry x="130" y="108" width="110" height="30" as="geometry" />
        </mxCell>
        <mxCell id="a1q_T6QtjMjYey4jX7b8-53" style="edgeStyle=orthogonalEdgeStyle;rounded=0;orthogonalLoop=1;jettySize=auto;html=1;entryX=0.5;entryY=0;entryDx=0;entryDy=0;fontFamily=Lucida Console;fontSize=12;" edge="1" parent="a1q_T6QtjMjYey4jX7b8-42" source="a1q_T6QtjMjYey4jX7b8-54" target="a1q_T6QtjMjYey4jX7b8-59">
          <mxGeometry relative="1" as="geometry" />
        </mxCell>
        <mxCell id="a1q_T6QtjMjYey4jX7b8-54" value="SUBPUB_MSG_CANCEL_SUB" style="rounded=1;whiteSpace=wrap;html=1;strokeColor=#7D7D7D;fontFamily=Lucida Console;" vertex="1" parent="a1q_T6QtjMjYey4jX7b8-42">
          <mxGeometry x="250" y="108" width="162.5" height="30" as="geometry" />
        </mxCell>
        <mxCell id="a1q_T6QtjMjYey4jX7b8-55" style="edgeStyle=orthogonalEdgeStyle;rounded=0;orthogonalLoop=1;jettySize=auto;html=1;fontFamily=Lucida Console;fontSize=12;" edge="1" parent="a1q_T6QtjMjYey4jX7b8-42" source="a1q_T6QtjMjYey4jX7b8-56" target="a1q_T6QtjMjYey4jX7b8-60">
          <mxGeometry relative="1" as="geometry" />
        </mxCell>
        <mxCell id="a1q_T6QtjMjYey4jX7b8-56" value="SUBPUB_MSG_MODULE_EXIT" style="rounded=1;whiteSpace=wrap;html=1;strokeColor=#7D7D7D;fontFamily=Lucida Console;" vertex="1" parent="a1q_T6QtjMjYey4jX7b8-42">
          <mxGeometry x="430" y="108" width="170" height="30" as="geometry" />
        </mxCell>
        <mxCell id="a1q_T6QtjMjYey4jX7b8-57" value="subpub_sub_msg&lt;br&gt;(msg_from, req, reqlen)" style="rounded=1;whiteSpace=wrap;html=1;strokeColor=#7D7D7D;fontFamily=Lucida Console;" vertex="1" parent="a1q_T6QtjMjYey4jX7b8-42">
          <mxGeometry x="10" y="165" width="110" height="50" as="geometry" />
        </mxCell>
        <mxCell id="a1q_T6QtjMjYey4jX7b8-58" value="subpub_pub_msg&lt;br&gt;(req, reqlen)" style="rounded=1;whiteSpace=wrap;html=1;strokeColor=#7D7D7D;fontFamily=Lucida Console;" vertex="1" parent="a1q_T6QtjMjYey4jX7b8-42">
          <mxGeometry x="130" y="165" width="110" height="50" as="geometry" />
        </mxCell>
        <mxCell id="a1q_T6QtjMjYey4jX7b8-59" value="subpub_cancel_sub_msg&lt;br&gt;(msgfrom, req, reqlen)" style="rounded=1;whiteSpace=wrap;html=1;strokeColor=#7D7D7D;fontFamily=Lucida Console;" vertex="1" parent="a1q_T6QtjMjYey4jX7b8-42">
          <mxGeometry x="251.25" y="165" width="160" height="50" as="geometry" />
        </mxCell>
        <mxCell id="a1q_T6QtjMjYey4jX7b8-60" value="subpub_destory_module&lt;br&gt;(msgfrom, req, eqlen)" style="rounded=1;whiteSpace=wrap;html=1;strokeColor=#7D7D7D;fontFamily=Lucida Console;" vertex="1" parent="a1q_T6QtjMjYey4jX7b8-42">
          <mxGeometry x="435" y="165" width="160" height="50" as="geometry" />
        </mxCell>
        <mxCell id="a1q_T6QtjMjYey4jX7b8-61" value="  subpub_sub_msg(module_id, data, datalen)" style="swimlane;sketch=0;fontFamily=Lucida Console;fontSize=12;align=left;strokeColor=#9E9E9E;startSize=23;fontStyle=1" vertex="1" parent="1">
          <mxGeometry x="1030" y="625" width="270" height="290" as="geometry">
            <mxRectangle x="51" y="940" width="300" height="23" as="alternateBounds" />
          </mxGeometry>
        </mxCell>
        <mxCell id="a1q_T6QtjMjYey4jX7b8-62" value="subpub_sub_req_msg_t *msg = NULL;" style="rounded=0;whiteSpace=wrap;html=1;sketch=0;strokeColor=#808080;fontSize=12;fontFamily=Lucida Console;" vertex="1" parent="a1q_T6QtjMjYey4jX7b8-61">
          <mxGeometry x="45" y="49" width="175" height="30" as="geometry" />
        </mxCell>
        <mxCell id="a1q_T6QtjMjYey4jX7b8-63" style="edgeStyle=orthogonalEdgeStyle;rounded=0;orthogonalLoop=1;jettySize=auto;html=1;fontFamily=Lucida Console;fontSize=12;" edge="1" parent="a1q_T6QtjMjYey4jX7b8-61" source="a1q_T6QtjMjYey4jX7b8-64" target="a1q_T6QtjMjYey4jX7b8-68">
          <mxGeometry relative="1" as="geometry" />
        </mxCell>
        <mxCell id="a1q_T6QtjMjYey4jX7b8-64" value="msg = (subpub_sub_req_msg_t *)data;" style="rounded=0;whiteSpace=wrap;html=1;sketch=0;strokeColor=#808080;fontSize=12;fontFamily=Lucida Console;" vertex="1" parent="a1q_T6QtjMjYey4jX7b8-61">
          <mxGeometry x="2.5" y="109" width="260" height="30" as="geometry" />
        </mxCell>
        <mxCell id="a1q_T6QtjMjYey4jX7b8-65" style="edgeStyle=orthogonalEdgeStyle;rounded=0;orthogonalLoop=1;jettySize=auto;html=1;entryX=0.5;entryY=0;entryDx=0;entryDy=0;fontFamily=Lucida Console;fontSize=12;" edge="1" parent="a1q_T6QtjMjYey4jX7b8-61" source="a1q_T6QtjMjYey4jX7b8-62" target="a1q_T6QtjMjYey4jX7b8-64">
          <mxGeometry relative="1" as="geometry" />
        </mxCell>
        <mxCell id="a1q_T6QtjMjYey4jX7b8-66" style="edgeStyle=orthogonalEdgeStyle;rounded=0;orthogonalLoop=1;jettySize=auto;html=1;fontFamily=Lucida Console;fontSize=12;" edge="1" parent="a1q_T6QtjMjYey4jX7b8-61" source="a1q_T6QtjMjYey4jX7b8-68" target="a1q_T6QtjMjYey4jX7b8-69">
          <mxGeometry relative="1" as="geometry" />
        </mxCell>
        <mxCell id="a1q_T6QtjMjYey4jX7b8-67" value="成功" style="edgeLabel;html=1;align=center;verticalAlign=middle;resizable=0;points=[];fontSize=11;fontFamily=Lucida Console;" vertex="1" connectable="0" parent="a1q_T6QtjMjYey4jX7b8-66">
          <mxGeometry x="-0.3425" y="1" relative="1" as="geometry">
            <mxPoint x="-12.5" y="-1" as="offset" />
          </mxGeometry>
        </mxCell>
        <mxCell id="a1q_T6QtjMjYey4jX7b8-68" value="ret = subpub_list_add(msg-&amp;gt;msg_id, module_id)" style="rounded=0;whiteSpace=wrap;html=1;sketch=0;strokeColor=#808080;fontSize=12;fontFamily=Lucida Console;" vertex="1" parent="a1q_T6QtjMjYey4jX7b8-61">
          <mxGeometry x="45" y="169" width="175" height="41" as="geometry" />
        </mxCell>
        <mxCell id="a1q_T6QtjMjYey4jX7b8-69" value="subpub_backup()" style="rounded=0;whiteSpace=wrap;html=1;sketch=0;strokeColor=#808080;fontSize=12;fontFamily=Lucida Console;" vertex="1" parent="a1q_T6QtjMjYey4jX7b8-61">
          <mxGeometry x="2.5" y="250" width="157.5" height="30" as="geometry" />
        </mxCell>
        <mxCell id="a1q_T6QtjMjYey4jX7b8-70" value="&lt;div style=&quot;text-align: left&quot;&gt;&lt;span&gt;处理订阅&lt;/span&gt;&lt;/div&gt;" style="text;html=1;align=center;verticalAlign=middle;resizable=0;points=[];autosize=1;fontSize=12;fontFamily=Lucida Console;" vertex="1" parent="a1q_T6QtjMjYey4jX7b8-61">
          <mxGeometry y="20" width="60" height="20" as="geometry" />
        </mxCell>
        <mxCell id="a1q_T6QtjMjYey4jX7b8-71" value="  subpub_pub_msg(data, datalen)" style="swimlane;sketch=0;fontFamily=Lucida Console;fontSize=12;align=left;strokeColor=#9E9E9E;startSize=23;fontStyle=1" vertex="1" parent="1">
          <mxGeometry x="1410" y="625" width="340" height="505" as="geometry">
            <mxRectangle x="51" y="940" width="300" height="23" as="alternateBounds" />
          </mxGeometry>
        </mxCell>
        <mxCell id="a1q_T6QtjMjYey4jX7b8-72" value="subpub_pub_req_msg_t *req = NULL;" style="rounded=0;whiteSpace=wrap;html=1;sketch=0;strokeColor=#808080;fontSize=12;fontFamily=Lucida Console;" vertex="1" parent="a1q_T6QtjMjYey4jX7b8-71">
          <mxGeometry x="45" y="49" width="175" height="30" as="geometry" />
        </mxCell>
        <mxCell id="a1q_T6QtjMjYey4jX7b8-73" style="edgeStyle=orthogonalEdgeStyle;rounded=0;orthogonalLoop=1;jettySize=auto;html=1;fontFamily=Lucida Console;fontSize=12;" edge="1" parent="a1q_T6QtjMjYey4jX7b8-71" source="a1q_T6QtjMjYey4jX7b8-74">
          <mxGeometry relative="1" as="geometry">
            <mxPoint x="132.5" y="235" as="targetPoint" />
          </mxGeometry>
        </mxCell>
        <mxCell id="a1q_T6QtjMjYey4jX7b8-74" value="req = (subpub_pub_req_msg_t *)data;" style="rounded=0;whiteSpace=wrap;html=1;sketch=0;strokeColor=#808080;fontSize=12;fontFamily=Lucida Console;" vertex="1" parent="a1q_T6QtjMjYey4jX7b8-71">
          <mxGeometry x="2.5" y="172.5" width="260" height="30" as="geometry" />
        </mxCell>
        <mxCell id="a1q_T6QtjMjYey4jX7b8-75" style="edgeStyle=orthogonalEdgeStyle;rounded=0;orthogonalLoop=1;jettySize=auto;html=1;fontFamily=Lucida Console;fontSize=12;entryX=0.5;entryY=0;entryDx=0;entryDy=0;" edge="1" parent="a1q_T6QtjMjYey4jX7b8-71" source="a1q_T6QtjMjYey4jX7b8-72" target="a1q_T6QtjMjYey4jX7b8-79">
          <mxGeometry relative="1" as="geometry">
            <mxPoint x="133" y="114" as="targetPoint" />
          </mxGeometry>
        </mxCell>
        <mxCell id="a1q_T6QtjMjYey4jX7b8-76" value="FALSE" style="edgeStyle=orthogonalEdgeStyle;rounded=0;orthogonalLoop=1;jettySize=auto;html=1;fontFamily=Lucida Console;fontSize=12;" edge="1" parent="a1q_T6QtjMjYey4jX7b8-71" source="a1q_T6QtjMjYey4jX7b8-80">
          <mxGeometry relative="1" as="geometry">
            <mxPoint x="132.5" y="276" as="sourcePoint" />
            <mxPoint x="81.25" y="325" as="targetPoint" />
          </mxGeometry>
        </mxCell>
        <mxCell id="a1q_T6QtjMjYey4jX7b8-77" value="&lt;div style=&quot;text-align: left&quot;&gt;&lt;span&gt;处理发布&lt;/span&gt;&lt;/div&gt;" style="text;html=1;align=center;verticalAlign=middle;resizable=0;points=[];autosize=1;fontSize=12;fontFamily=Lucida Console;" vertex="1" parent="a1q_T6QtjMjYey4jX7b8-71">
          <mxGeometry y="20" width="60" height="20" as="geometry" />
        </mxCell>
        <mxCell id="a1q_T6QtjMjYey4jX7b8-78" value="FALSE" style="edgeStyle=orthogonalEdgeStyle;rounded=0;orthogonalLoop=1;jettySize=auto;html=1;entryX=0.5;entryY=0;entryDx=0;entryDy=0;fontFamily=Lucida Console;fontSize=12;" edge="1" parent="a1q_T6QtjMjYey4jX7b8-71" source="a1q_T6QtjMjYey4jX7b8-79" target="a1q_T6QtjMjYey4jX7b8-74">
          <mxGeometry relative="1" as="geometry" />
        </mxCell>
        <mxCell id="a1q_T6QtjMjYey4jX7b8-79" value="NULL == data ||&lt;br&gt;sizeof(subpub_pub_req_msg_t) &amp;gt; datalen" style="rhombus;whiteSpace=wrap;html=1;sketch=0;rounded=1;fontFamily=Lucida Console;fontSize=12;strokeColor=#8C8C8C;" vertex="1" parent="a1q_T6QtjMjYey4jX7b8-71">
          <mxGeometry x="34.07000000000001" y="105" width="196.87" height="35" as="geometry" />
        </mxCell>
        <mxCell id="a1q_T6QtjMjYey4jX7b8-80" value="req-&amp;gt;data_len + sizeof(sbupub_pub_req_msg_t) != datalen" style="rhombus;whiteSpace=wrap;html=1;sketch=0;rounded=1;fontFamily=Lucida Console;fontSize=12;strokeColor=#8C8C8C;" vertex="1" parent="a1q_T6QtjMjYey4jX7b8-71">
          <mxGeometry x="36.569999999999936" y="235" width="196.87" height="35" as="geometry" />
        </mxCell>
        <mxCell id="a1q_T6QtjMjYey4jX7b8-81" value="FALSE" style="edgeStyle=orthogonalEdgeStyle;rounded=0;orthogonalLoop=1;jettySize=auto;html=1;fontFamily=Lucida Console;fontSize=12;" edge="1" parent="a1q_T6QtjMjYey4jX7b8-71" source="a1q_T6QtjMjYey4jX7b8-83" target="a1q_T6QtjMjYey4jX7b8-84">
          <mxGeometry relative="1" as="geometry" />
        </mxCell>
        <mxCell id="a1q_T6QtjMjYey4jX7b8-82" value="TRUE" style="edgeStyle=orthogonalEdgeStyle;rounded=0;orthogonalLoop=1;jettySize=auto;html=1;entryX=0.776;entryY=0.061;entryDx=0;entryDy=0;entryPerimeter=0;fontFamily=Lucida Console;fontSize=12;" edge="1" parent="a1q_T6QtjMjYey4jX7b8-71" source="a1q_T6QtjMjYey4jX7b8-83" target="a1q_T6QtjMjYey4jX7b8-85">
          <mxGeometry relative="1" as="geometry">
            <Array as="points">
              <mxPoint x="292" y="343" />
            </Array>
          </mxGeometry>
        </mxCell>
        <mxCell id="a1q_T6QtjMjYey4jX7b8-83" value="0 &amp;lt; req-&amp;gt;data_len" style="rhombus;whiteSpace=wrap;html=1;sketch=0;rounded=1;fontFamily=Lucida Console;fontSize=12;strokeColor=#8C8C8C;" vertex="1" parent="a1q_T6QtjMjYey4jX7b8-71">
          <mxGeometry x="-10" y="325" width="196.87" height="35" as="geometry" />
        </mxCell>
        <mxCell id="a1q_T6QtjMjYey4jX7b8-84" value="subpub_push_msg(req-&amp;gt;msg_id, ((void*)req)+...)" style="rounded=0;whiteSpace=wrap;html=1;sketch=0;strokeColor=#808080;fontSize=12;fontFamily=Lucida Console;" vertex="1" parent="a1q_T6QtjMjYey4jX7b8-71">
          <mxGeometry x="-19.56" y="395" width="216" height="30" as="geometry" />
        </mxCell>
        <mxCell id="a1q_T6QtjMjYey4jX7b8-85" value="subpub_push_msg(req-&amp;gt;msg_id, NULL, 0);" style="rounded=0;whiteSpace=wrap;html=1;sketch=0;strokeColor=#808080;fontSize=12;fontFamily=Lucida Console;" vertex="1" parent="a1q_T6QtjMjYey4jX7b8-71">
          <mxGeometry x="124" y="445" width="216" height="30" as="geometry" />
        </mxCell>
        <mxCell id="a1q_T6QtjMjYey4jX7b8-86" value="  subpub_cancel_sub_msg(module_id, data, datalen)" style="swimlane;sketch=0;fontFamily=Lucida Console;fontSize=12;align=left;strokeColor=#9E9E9E;startSize=23;fontStyle=1" vertex="1" parent="1">
          <mxGeometry x="1030" y="940" width="270" height="290" as="geometry">
            <mxRectangle x="51" y="940" width="300" height="23" as="alternateBounds" />
          </mxGeometry>
        </mxCell>
        <mxCell id="a1q_T6QtjMjYey4jX7b8-87" value="subpub_cancel_sub_req_msg_t *msg = NULL;" style="rounded=0;whiteSpace=wrap;html=1;sketch=0;strokeColor=#808080;fontSize=12;fontFamily=Lucida Console;" vertex="1" parent="a1q_T6QtjMjYey4jX7b8-86">
          <mxGeometry x="45" y="49" width="175" height="30" as="geometry" />
        </mxCell>
        <mxCell id="a1q_T6QtjMjYey4jX7b8-88" style="edgeStyle=orthogonalEdgeStyle;rounded=0;orthogonalLoop=1;jettySize=auto;html=1;fontFamily=Lucida Console;fontSize=12;" edge="1" parent="a1q_T6QtjMjYey4jX7b8-86" source="a1q_T6QtjMjYey4jX7b8-89" target="a1q_T6QtjMjYey4jX7b8-93">
          <mxGeometry relative="1" as="geometry" />
        </mxCell>
        <mxCell id="a1q_T6QtjMjYey4jX7b8-89" value="msg = (subpub_cancel_sub_req_msg_t *)data;" style="rounded=0;whiteSpace=wrap;html=1;sketch=0;strokeColor=#808080;fontSize=12;fontFamily=Lucida Console;" vertex="1" parent="a1q_T6QtjMjYey4jX7b8-86">
          <mxGeometry x="2.5" y="109" width="260" height="30" as="geometry" />
        </mxCell>
        <mxCell id="a1q_T6QtjMjYey4jX7b8-90" style="edgeStyle=orthogonalEdgeStyle;rounded=0;orthogonalLoop=1;jettySize=auto;html=1;entryX=0.5;entryY=0;entryDx=0;entryDy=0;fontFamily=Lucida Console;fontSize=12;" edge="1" parent="a1q_T6QtjMjYey4jX7b8-86" source="a1q_T6QtjMjYey4jX7b8-87" target="a1q_T6QtjMjYey4jX7b8-89">
          <mxGeometry relative="1" as="geometry" />
        </mxCell>
        <mxCell id="a1q_T6QtjMjYey4jX7b8-91" style="edgeStyle=orthogonalEdgeStyle;rounded=0;orthogonalLoop=1;jettySize=auto;html=1;fontFamily=Lucida Console;fontSize=12;" edge="1" parent="a1q_T6QtjMjYey4jX7b8-86" source="a1q_T6QtjMjYey4jX7b8-93" target="a1q_T6QtjMjYey4jX7b8-94">
          <mxGeometry relative="1" as="geometry" />
        </mxCell>
        <mxCell id="a1q_T6QtjMjYey4jX7b8-92" value="成功" style="edgeLabel;html=1;align=center;verticalAlign=middle;resizable=0;points=[];fontSize=11;fontFamily=Lucida Console;" vertex="1" connectable="0" parent="a1q_T6QtjMjYey4jX7b8-91">
          <mxGeometry x="-0.3425" y="1" relative="1" as="geometry">
            <mxPoint x="-12.5" y="-1" as="offset" />
          </mxGeometry>
        </mxCell>
        <mxCell id="a1q_T6QtjMjYey4jX7b8-93" value="ret = subpub_list_delete_node(msg-&amp;gt;msg_id, module_id)" style="rounded=0;whiteSpace=wrap;html=1;sketch=0;strokeColor=#808080;fontSize=12;fontFamily=Lucida Console;" vertex="1" parent="a1q_T6QtjMjYey4jX7b8-86">
          <mxGeometry x="45" y="169" width="175" height="41" as="geometry" />
        </mxCell>
        <mxCell id="a1q_T6QtjMjYey4jX7b8-94" value="subpub_backup()" style="rounded=0;whiteSpace=wrap;html=1;sketch=0;strokeColor=#808080;fontSize=12;fontFamily=Lucida Console;" vertex="1" parent="a1q_T6QtjMjYey4jX7b8-86">
          <mxGeometry x="2.5" y="250" width="157.5" height="30" as="geometry" />
        </mxCell>
        <mxCell id="a1q_T6QtjMjYey4jX7b8-95" value="&lt;div style=&quot;text-align: left&quot;&gt;&lt;span&gt;处理取消订阅&lt;/span&gt;&lt;/div&gt;" style="text;html=1;align=center;verticalAlign=middle;resizable=0;points=[];autosize=1;fontSize=12;fontFamily=Lucida Console;" vertex="1" parent="a1q_T6QtjMjYey4jX7b8-86">
          <mxGeometry x="-10" y="20" width="90" height="20" as="geometry" />
        </mxCell>
        <mxCell id="a1q_T6QtjMjYey4jX7b8-96" value="  subpub_destory_module(module_id)" style="swimlane;sketch=0;fontFamily=Lucida Console;fontSize=12;align=left;strokeColor=#9E9E9E;startSize=23;fontStyle=1" vertex="1" parent="1">
          <mxGeometry x="1410" y="1150" width="270" height="250" as="geometry">
            <mxRectangle x="51" y="940" width="300" height="23" as="alternateBounds" />
          </mxGeometry>
        </mxCell>
        <mxCell id="a1q_T6QtjMjYey4jX7b8-97" style="edgeStyle=orthogonalEdgeStyle;rounded=0;orthogonalLoop=1;jettySize=auto;html=1;fontFamily=Lucida Console;fontSize=12;" edge="1" parent="a1q_T6QtjMjYey4jX7b8-96" source="a1q_T6QtjMjYey4jX7b8-98" target="a1q_T6QtjMjYey4jX7b8-101">
          <mxGeometry relative="1" as="geometry" />
        </mxCell>
        <mxCell id="a1q_T6QtjMjYey4jX7b8-98" value="msg = (subpub_cancel_sub_req_msg_t *)data;" style="rounded=0;whiteSpace=wrap;html=1;sketch=0;strokeColor=#808080;fontSize=12;fontFamily=Lucida Console;" vertex="1" parent="a1q_T6QtjMjYey4jX7b8-96">
          <mxGeometry x="2.5" y="60" width="260" height="30" as="geometry" />
        </mxCell>
        <mxCell id="a1q_T6QtjMjYey4jX7b8-99" style="edgeStyle=orthogonalEdgeStyle;rounded=0;orthogonalLoop=1;jettySize=auto;html=1;fontFamily=Lucida Console;fontSize=12;" edge="1" parent="a1q_T6QtjMjYey4jX7b8-96" source="a1q_T6QtjMjYey4jX7b8-101" target="a1q_T6QtjMjYey4jX7b8-102">
          <mxGeometry relative="1" as="geometry" />
        </mxCell>
        <mxCell id="a1q_T6QtjMjYey4jX7b8-100" value="成功" style="edgeLabel;html=1;align=center;verticalAlign=middle;resizable=0;points=[];fontSize=11;fontFamily=Lucida Console;" vertex="1" connectable="0" parent="a1q_T6QtjMjYey4jX7b8-99">
          <mxGeometry x="-0.3425" y="1" relative="1" as="geometry">
            <mxPoint x="-12.5" y="-1" as="offset" />
          </mxGeometry>
        </mxCell>
        <mxCell id="a1q_T6QtjMjYey4jX7b8-101" value="ret = subpub_list_delete_module(module_id)" style="rounded=0;whiteSpace=wrap;html=1;sketch=0;strokeColor=#808080;fontSize=12;fontFamily=Lucida Console;" vertex="1" parent="a1q_T6QtjMjYey4jX7b8-96">
          <mxGeometry x="45" y="124.5" width="175" height="41" as="geometry" />
        </mxCell>
        <mxCell id="a1q_T6QtjMjYey4jX7b8-102" value="subpub_backup()" style="rounded=0;whiteSpace=wrap;html=1;sketch=0;strokeColor=#808080;fontSize=12;fontFamily=Lucida Console;" vertex="1" parent="a1q_T6QtjMjYey4jX7b8-96">
          <mxGeometry x="10" y="210" width="157.5" height="30" as="geometry" />
        </mxCell>
        <mxCell id="a1q_T6QtjMjYey4jX7b8-103" value="&lt;div style=&quot;text-align: left&quot;&gt;&lt;span&gt;订阅进程退出&lt;/span&gt;&lt;/div&gt;" style="text;html=1;align=center;verticalAlign=middle;resizable=0;points=[];autosize=1;fontSize=12;fontFamily=Lucida Console;" vertex="1" parent="a1q_T6QtjMjYey4jX7b8-96">
          <mxGeometry x="-10" y="20" width="90" height="20" as="geometry" />
        </mxCell>
        <mxCell id="a1q_T6QtjMjYey4jX7b8-104" value="  subpub_push_msg(msg_id, *data, datalen)" style="swimlane;sketch=0;fontFamily=Lucida Console;fontSize=12;align=left;strokeColor=#9E9E9E;startSize=23;fontStyle=1" vertex="1" parent="1">
          <mxGeometry x="1860" y="1080" width="410" height="500" as="geometry">
            <mxRectangle x="51" y="940" width="300" height="23" as="alternateBounds" />
          </mxGeometry>
        </mxCell>
        <mxCell id="a1q_T6QtjMjYey4jX7b8-105" style="edgeStyle=orthogonalEdgeStyle;rounded=0;orthogonalLoop=1;jettySize=auto;html=1;fontFamily=Lucida Console;fontSize=12;" edge="1" parent="a1q_T6QtjMjYey4jX7b8-104" source="a1q_T6QtjMjYey4jX7b8-106" target="a1q_T6QtjMjYey4jX7b8-108">
          <mxGeometry relative="1" as="geometry" />
        </mxCell>
        <mxCell id="a1q_T6QtjMjYey4jX7b8-106" value="frwk_mutex_lock(&amp;amp;g_sub_msg_queue.mutex)" style="rounded=0;whiteSpace=wrap;html=1;sketch=0;strokeColor=#808080;fontSize=12;fontFamily=Lucida Console;" vertex="1" parent="a1q_T6QtjMjYey4jX7b8-104">
          <mxGeometry x="35" y="40" width="280" height="30" as="geometry" />
        </mxCell>
        <mxCell id="a1q_T6QtjMjYey4jX7b8-107" style="edgeStyle=orthogonalEdgeStyle;rounded=0;orthogonalLoop=1;jettySize=auto;html=1;fontFamily=Lucida Console;fontSize=12;" edge="1" parent="a1q_T6QtjMjYey4jX7b8-104" source="a1q_T6QtjMjYey4jX7b8-108" target="a1q_T6QtjMjYey4jX7b8-112">
          <mxGeometry relative="1" as="geometry" />
        </mxCell>
        <mxCell id="a1q_T6QtjMjYey4jX7b8-108" value="head = subpub_list_head_find(&amp;amp;g_sub_msg_queue.msg.list, msg_id, &amp;amp;isfound)" style="rounded=0;whiteSpace=wrap;html=1;sketch=0;strokeColor=#808080;fontSize=12;fontFamily=Lucida Console;" vertex="1" parent="a1q_T6QtjMjYey4jX7b8-104">
          <mxGeometry y="104.5" width="350" height="41" as="geometry" />
        </mxCell>
        <mxCell id="a1q_T6QtjMjYey4jX7b8-109" value="&lt;div style=&quot;text-align: left&quot;&gt;推送消息&lt;/div&gt;" style="text;html=1;align=center;verticalAlign=middle;resizable=0;points=[];autosize=1;fontSize=12;fontFamily=Lucida Console;" vertex="1" parent="a1q_T6QtjMjYey4jX7b8-104">
          <mxGeometry x="5" y="20" width="60" height="20" as="geometry" />
        </mxCell>
        <mxCell id="a1q_T6QtjMjYey4jX7b8-110" value="TRUE" style="edgeStyle=orthogonalEdgeStyle;rounded=0;orthogonalLoop=1;jettySize=auto;html=1;fontFamily=Lucida Console;fontSize=12;" edge="1" parent="a1q_T6QtjMjYey4jX7b8-104" source="a1q_T6QtjMjYey4jX7b8-112" target="a1q_T6QtjMjYey4jX7b8-114">
          <mxGeometry relative="1" as="geometry" />
        </mxCell>
        <mxCell id="a1q_T6QtjMjYey4jX7b8-111" value="FALSE" style="edgeStyle=orthogonalEdgeStyle;rounded=0;orthogonalLoop=1;jettySize=auto;html=1;entryX=0.556;entryY=0.011;entryDx=0;entryDy=0;entryPerimeter=0;fontFamily=Lucida Console;fontSize=12;" edge="1" parent="a1q_T6QtjMjYey4jX7b8-104" source="a1q_T6QtjMjYey4jX7b8-112" target="a1q_T6QtjMjYey4jX7b8-116">
          <mxGeometry relative="1" as="geometry" />
        </mxCell>
        <mxCell id="a1q_T6QtjMjYey4jX7b8-112" value="!is_found" style="rhombus;whiteSpace=wrap;html=1;sketch=0;rounded=1;fontFamily=Lucida Console;fontSize=12;strokeColor=#616161;" vertex="1" parent="a1q_T6QtjMjYey4jX7b8-104">
          <mxGeometry x="110" y="170" width="130" height="30" as="geometry" />
        </mxCell>
        <mxCell id="a1q_T6QtjMjYey4jX7b8-113" style="edgeStyle=orthogonalEdgeStyle;rounded=0;orthogonalLoop=1;jettySize=auto;html=1;entryX=0;entryY=0.5;entryDx=0;entryDy=0;fontFamily=Lucida Console;fontSize=12;" edge="1" parent="a1q_T6QtjMjYey4jX7b8-104" source="a1q_T6QtjMjYey4jX7b8-114" target="a1q_T6QtjMjYey4jX7b8-118">
          <mxGeometry relative="1" as="geometry" />
        </mxCell>
        <mxCell id="a1q_T6QtjMjYey4jX7b8-114" value="goto END;" style="rounded=1;whiteSpace=wrap;html=1;strokeColor=#7D7D7D;fontFamily=Lucida Console;" vertex="1" parent="a1q_T6QtjMjYey4jX7b8-104">
          <mxGeometry x="10" y="240" width="150" height="30" as="geometry" />
        </mxCell>
        <mxCell id="a1q_T6QtjMjYey4jX7b8-115" style="edgeStyle=orthogonalEdgeStyle;rounded=0;orthogonalLoop=1;jettySize=auto;html=1;fontFamily=Lucida Console;fontSize=12;" edge="1" parent="a1q_T6QtjMjYey4jX7b8-104" source="a1q_T6QtjMjYey4jX7b8-116" target="a1q_T6QtjMjYey4jX7b8-117">
          <mxGeometry relative="1" as="geometry" />
        </mxCell>
        <mxCell id="a1q_T6QtjMjYey4jX7b8-116" value="FRWK_LIST_FOR_EACH(pos, &amp;amp;head-&amp;gt;node)" style="rounded=1;whiteSpace=wrap;html=1;strokeColor=#7D7D7D;fontFamily=Lucida Console;" vertex="1" parent="a1q_T6QtjMjYey4jX7b8-104">
          <mxGeometry x="180" y="270" width="150" height="30" as="geometry" />
        </mxCell>
        <mxCell id="a1q_T6QtjMjYey4jX7b8-117" value="node = FRWK_LIST_ENTRY(pos, )" style="rounded=1;whiteSpace=wrap;html=1;strokeColor=#7D7D7D;fontFamily=Lucida Console;" vertex="1" parent="a1q_T6QtjMjYey4jX7b8-104">
          <mxGeometry x="180" y="330" width="150" height="30" as="geometry" />
        </mxCell>
        <mxCell id="a1q_T6QtjMjYey4jX7b8-118" value="frwk_mutex_lock(&amp;amp;g_sub_msg_queue.mutex)" style="rounded=0;whiteSpace=wrap;html=1;sketch=0;strokeColor=#808080;fontSize=12;fontFamily=Lucida Console;" vertex="1" parent="a1q_T6QtjMjYey4jX7b8-104">
          <mxGeometry x="130" y="460" width="280" height="30" as="geometry" />
        </mxCell>
        <mxCell id="a1q_T6QtjMjYey4jX7b8-119" style="edgeStyle=orthogonalEdgeStyle;rounded=0;orthogonalLoop=1;jettySize=auto;html=1;fontFamily=Lucida Console;fontSize=12;" edge="1" parent="1" source="a1q_T6QtjMjYey4jX7b8-120" target="a1q_T6QtjMjYey4jX7b8-118">
          <mxGeometry relative="1" as="geometry" />
        </mxCell>
        <mxCell id="a1q_T6QtjMjYey4jX7b8-120" value="subpub_push_msg_to_module&lt;br&gt;(node-&amp;gt;module_id, msg_id, data, datalen)" style="rounded=1;whiteSpace=wrap;html=1;strokeColor=#7D7D7D;fontFamily=Lucida Console;" vertex="1" parent="1">
          <mxGeometry x="2020" y="1470" width="230" height="40" as="geometry" />
        </mxCell>
        <mxCell id="a1q_T6QtjMjYey4jX7b8-121" style="edgeStyle=orthogonalEdgeStyle;rounded=0;orthogonalLoop=1;jettySize=auto;html=1;fontFamily=Lucida Console;fontSize=12;" edge="1" parent="1" source="a1q_T6QtjMjYey4jX7b8-117" target="a1q_T6QtjMjYey4jX7b8-120">
          <mxGeometry relative="1" as="geometry" />
        </mxCell>
      </root>
    </mxGraphModel>
  </diagram>
</mxfile>
